<?xml version="1.0" standalone="no"?>
<!DOCTYPE svg PUBLIC "-//W3C//DTD SVG 20010904//EN"
 "http://www.w3.org/TR/2001/REC-SVG-20010904/DTD/svg10.dtd">
<svg version="1.0" xmlns="http://www.w3.org/2000/svg"
 width="100.000000pt" height="100.000000pt" viewBox="0 0 100.000000 100.000000"
 preserveAspectRatio="xMidYMid meet">
<metadata>
Created by potrace 1.11, written by Peter Selinger 2001-2013
</metadata>
<g transform="translate(0.000000,100.000000) scale(0.100000,-0.100000)"
fill="#000000" stroke="none">
<path d="M837 983 c-3 -10 -5 -50 -5 -90 0 -39 -3 -76 -7 -82 -3 -6 -21 -11
-39 -11 -95 0 -96 -104 -1 -115 53 -7 85 20 86 73 1 20 2 64 3 97 1 66 -1 65
77 50 33 -6 37 -5 41 16 8 46 0 54 -67 67 -82 15 -83 15 -88 -5z"/>
<path d="M405 643 c-80 -42 -102 -87 -109 -223 -7 -122 -28 -177 -84 -212 -31
-19 -51 -23 -122 -23 -70 0 -85 -3 -88 -17 -5 -25 112 -78 202 -91 63 -9 76
-14 76 -29 0 -23 28 -23 52 -1 25 22 98 22 133 -1 30 -20 58 -15 49 9 -4 9
-17 21 -31 28 l-24 13 50 31 c27 17 66 53 85 80 36 49 76 154 76 201 0 17 13
36 41 60 32 28 40 40 36 60 -3 14 -1 38 4 54 11 39 -7 45 -65 23 -44 -17 -45
-17 -68 5 -52 50 -152 65 -213 33z m150 -37 c18 -8 39 -24 45 -36 10 -19 18
-22 51 -17 38 5 53 -5 24 -17 -8 -3 -15 -10 -15 -16 0 -5 7 -10 15 -10 25 0
17 -17 -14 -29 -26 -11 -29 -18 -34 -71 -11 -121 -83 -227 -186 -273 -57 -25
-157 -33 -236 -18 -69 13 -88 26 -44 29 38 3 81 25 110 55 42 43 61 103 66
210 5 114 19 148 73 184 38 27 94 30 145 9z"/>
<path d="M516 545 c-4 -12 17 -45 29 -45 2 0 10 7 19 15 20 20 10 45 -19 45
-13 0 -25 -7 -29 -15z"/>
</g>
</svg>
